<svg width="112" height="36" viewBox="0 0 112 36" fill="none" xmlns="http://www.w3.org/2000/svg">
<path fill-rule="evenodd" clip-rule="evenodd" d="M28.9402 28.8257C24.5868 33.1362 17.8557 35.934 9.83915 35.934C7.41044 35.934 5.287 35.6823 4.46226 35.5082C1.89369 34.9682 0.055542 32.7048 0.055542 30.0832V20.9411C0.055542 20.5252 0.10213 20.1193 0.188711 19.729C0.10102 19.3375 0.055542 18.9327 0.055542 18.5202V8.25247C0.055542 5.9891 1.43416 3.95195 3.53652 3.10804C7.92218 1.34703 12.1124 0.490906 15.882 0.490906C21.421 0.490906 26.0143 2.25636 29.2244 5.15515C29.7439 2.62231 31.9861 0.729319 34.6602 0.729319H50.6043C52.4603 0.729319 54.193 1.6564 55.2231 3.19895C56.2588 4.75148 57.1623 6.37611 57.9493 8.03842C58.027 7.78004 58.1213 7.52941 58.2335 7.28766V6.30845C58.2335 3.24664 60.7188 0.763703 63.7835 0.763703H75.392C77.1725 0.763703 78.8453 1.61759 79.8898 3.06033C80.9332 4.50197 81.2207 6.35724 80.6624 8.04617L79.044 12.9444C79.3647 12.9954 79.6822 13.0764 79.993 13.1851C80.3205 9.48008 82.4106 6.45375 85.7384 4.2791C89.5092 1.8139 95.1369 0.559674 99.8711 0.559674C103.064 0.559674 105.922 0.997702 107.29 1.32928C110.104 2.01128 111.92 4.73816 111.463 7.59371L110.234 15.2688C110.143 15.8366 109.966 16.3811 109.711 16.8845C109.915 17.3181 110.063 17.7805 110.149 18.2618L111.446 25.5277C111.859 27.8398 110.769 30.1609 108.726 31.3219C104.794 33.5542 98.6002 35.9008 93.18 35.9008C89.3948 35.9008 86.3035 34.9515 84.0102 33.3668C83.8925 33.5321 83.7649 33.6918 83.6283 33.8437C82.5749 35.0225 81.0698 35.6956 79.4891 35.6956H63.2718C62.1352 35.6956 61.0784 35.3541 60.1982 34.7686C59.318 35.3552 58.2612 35.6956 57.1257 35.6956H42.0007C41.5833 35.6956 41.1726 35.6491 40.7741 35.5581C40.3778 35.648 39.966 35.6956 39.5431 35.6956H34.4903C31.4633 35.6956 28.9946 33.2726 28.9402 30.2496C28.9325 29.8027 28.9325 29.327 28.9402 28.8257ZM47.7217 10.8053C47.5307 10.5524 47.1722 10.4992 46.9169 10.6866C44.5326 12.4354 42.6722 14.3672 41.5622 16.1748C40.7785 17.4501 40.3645 18.6766 40.3645 19.7478C40.3645 21.6763 41.7631 22.9516 43.9809 22.9516C44.6636 22.9516 45.4328 22.8185 46.2387 22.5623L41.5156 29.837C41.4001 30.0145 41.3923 30.2407 41.4934 30.427C41.5944 30.6133 41.7887 30.7286 42.0007 30.7286H57.1257C57.4409 30.7286 57.6984 30.4758 57.704 30.1608C57.8083 24.1082 56.4164 13.9425 51.0861 5.95362C50.9785 5.79393 50.7986 5.69745 50.6043 5.69745H34.6602C34.3483 5.69745 34.0918 5.94472 34.0829 6.25744L33.7755 16.4897C33.7688 16.7026 33.8798 16.9022 34.0652 17.0076C34.2505 17.1141 34.4781 17.1096 34.659 16.9976L36.6504 15.7567C34.2661 21.073 33.8498 26.6466 33.912 30.1608C33.9175 30.4758 34.1751 30.7286 34.4903 30.7286H39.5431C39.8617 30.7286 40.1214 30.4702 40.1214 30.1509V29.1273C40.1214 28.809 39.8617 28.5506 39.5431 28.5506H36.1043C36.2419 23.7589 37.3164 16.6017 42.1971 11.0204C42.3858 10.8042 42.3881 10.4826 42.2016 10.2652C42.014 10.0467 41.6954 9.99905 41.4534 10.1521L36.0543 13.5632L36.213 7.87538H49.7064C53.9666 14.6832 55.363 22.8817 55.5128 28.5506H44.971L51.8764 17.8083C52.0318 17.5665 51.9852 17.246 51.7665 17.0586C51.5479 16.8712 51.2238 16.8723 51.0073 17.063C48.2789 19.465 46.0933 20.7736 43.9809 20.7736C43.4137 20.7736 42.9841 20.6627 42.7421 20.3788C42.6045 20.218 42.5446 20.0029 42.5446 19.7478C42.5446 19.0037 42.8964 18.1299 43.5003 17.1895C44.4826 15.658 46.1321 13.9824 48.2178 12.4343C48.3421 12.3434 48.4232 12.2059 48.4454 12.0539C48.4676 11.902 48.4287 11.7468 48.3355 11.6237L47.7217 10.8053ZM20.6529 16.8257C19.8248 16.7115 18.9568 16.6461 18.0677 16.6461C15.2172 16.6461 12.6564 17.4656 11.0591 18.7143C9.89357 19.6258 9.22756 20.7692 9.22756 21.999C9.22756 23.5682 10.7549 24.7591 12.9461 24.7591C16.8633 24.7591 20.8283 22.325 22.2524 19.4196C22.6443 19.5382 23.0072 19.6658 23.3535 19.8277C23.4956 19.8942 23.6588 19.8997 23.8054 19.8443C23.9508 19.7877 24.0684 19.6758 24.1306 19.5316L24.5401 18.5767C24.6645 18.2851 24.5313 17.9469 24.2405 17.8205C23.8076 17.6308 23.3336 17.4623 22.8341 17.3137C22.8408 17.2294 22.8451 17.1429 22.8451 17.0531C22.8451 14.3783 20.4331 12.4853 16.8389 12.4853C13.7975 12.4853 10.0146 13.5932 7.20845 15.2488V9.33922C10.3098 8.22694 13.2502 7.63697 15.882 7.63697C22.5077 7.63697 27.1176 11.3486 27.1176 16.6439C27.1176 23.6092 19.6073 28.7891 9.83915 28.7891C8.85346 28.7891 7.92996 28.7469 7.20845 28.6793V20.9411C7.20845 20.6228 6.94982 20.3644 6.63014 20.3644H5.6056C5.28703 20.3644 5.02724 20.6228 5.02724 20.9411V30.0832C5.02724 30.356 5.21928 30.5911 5.4868 30.6477C6.15391 30.7885 7.87332 30.967 9.83915 30.967C20.896 30.967 29.2977 24.7603 29.2977 16.6439C29.2977 10.1687 23.7964 5.4579 15.882 5.4579C12.6763 5.4579 9.11985 6.21976 5.39021 7.71684C5.17154 7.80445 5.02724 8.01737 5.02724 8.25247V18.5202C5.02724 18.7575 5.17379 18.9716 5.39579 19.0581C5.6178 19.1446 5.87088 19.0858 6.03183 18.9106C8.23076 16.5163 13.1614 14.6633 16.8389 14.6633C18.9845 14.6633 20.5019 15.4584 20.6529 16.8257ZM12.9461 22.5812C12.4466 22.5812 12.0137 22.4869 11.7084 22.3172C11.5464 22.2274 11.4076 22.1387 11.4076 21.999C11.4076 21.3569 11.8827 20.7803 12.5965 20.2824C13.863 19.4007 15.8865 18.824 18.0677 18.824C18.7382 18.824 19.3941 18.8729 20.0324 18.9483C18.7426 20.9388 15.7733 22.5812 12.9461 22.5812ZM62.6935 30.1509C62.6935 30.4702 62.9521 30.7286 63.2718 30.7286H79.4891C79.6534 30.7286 79.8099 30.6588 79.9198 30.5357C80.0297 30.4126 80.0818 30.2496 80.063 30.0855L78.732 18.3527C78.7087 18.1542 78.5866 17.9824 78.4057 17.8959C78.2259 17.8105 78.015 17.8238 77.8462 17.9303L70.6456 22.5169L75.9404 6.4892C75.9992 6.31398 75.9693 6.11995 75.8605 5.97024C75.7517 5.82054 75.5774 5.73069 75.392 5.73069H63.7835C63.4638 5.73069 63.2052 5.99018 63.2052 6.30845V7.33201C63.2052 7.65139 63.4638 7.90977 63.7835 7.90977H73.1909L67.1613 26.0811C67.0836 26.3128 67.1613 26.5679 67.3544 26.7176C67.5464 26.8684 67.8129 26.8806 68.0193 26.7497L76.865 21.1407L77.6831 28.5506H64.8736V9.61754C64.8736 9.29816 64.615 9.03978 64.2953 9.03978H63.2718C62.9521 9.03978 62.6935 9.29816 62.6935 9.61754V30.1509ZM91.1187 26.6765C91.1831 26.8151 91.3007 26.9227 91.445 26.976C91.5893 27.0281 91.7481 27.0214 91.8868 26.9571L103.466 21.5754L104.211 25.643C101.137 27.2388 96.9285 28.7547 93.18 28.7547C89.1784 28.7547 86.4855 27.1511 86.4855 24.4542C86.4855 22.8484 87.3214 21.2804 88.6534 19.984C90.2518 20.849 92.2664 21.3126 94.5286 21.246C94.532 21.246 94.5353 21.246 94.5397 21.246C97.1649 21.1163 99.3849 20.4797 100.745 19.5726C101.798 18.8684 102.362 17.9857 102.362 17.0531C102.362 16.3256 102.032 15.7079 101.417 15.2366C100.65 14.6489 99.3805 14.2929 97.7887 14.2929C94.3155 14.2929 91.0044 15.4484 88.5235 17.2372C87.6377 16.4321 87.1004 15.4018 87.1004 14.2219C87.1004 12.4698 88.1816 11.1191 89.7889 10.1066C92.393 8.46425 96.3546 7.7046 99.8711 7.7046C101.497 7.7046 103.002 7.85102 104.157 8.01736L103.428 12.4753L92.6494 10.212C92.4995 10.1798 92.343 10.2097 92.2143 10.294C92.0855 10.3783 91.9956 10.5092 91.9645 10.66L91.7603 11.6492C91.6959 11.9608 91.8946 12.2657 92.2065 12.3312L104.634 14.9572C104.788 14.9904 104.951 14.9583 105.082 14.8684C105.211 14.7786 105.299 14.64 105.325 14.4837L106.553 6.8097C106.601 6.51139 106.412 6.22749 106.119 6.15651C104.967 5.87817 102.558 5.52666 99.8711 5.52666C96.0572 5.52666 91.4994 6.44931 88.4613 8.43544C86.319 9.83493 84.9193 11.7578 84.9193 14.2219C84.9193 15.9596 85.6286 17.4922 86.8707 18.6821C85.2723 20.3555 84.3055 22.3782 84.3055 24.4542C84.3055 28.32 87.7997 30.9327 93.18 30.9327C97.751 30.9327 102.954 28.8856 106.268 27.0037C106.481 26.8828 106.594 26.641 106.552 26.3993L105.255 19.1346C105.223 18.9583 105.111 18.8063 104.953 18.7242C104.794 18.6411 104.605 18.6367 104.442 18.7121L90.9566 24.9543C90.8168 25.0187 90.7091 25.1351 90.6569 25.2792C90.6036 25.4234 90.6103 25.582 90.6747 25.7206L91.1187 26.6765ZM97.7887 16.4709C98.6179 16.4709 99.2862 16.5773 99.7468 16.7647C99.8889 16.8224 100.008 16.8868 100.095 16.9599C100.135 16.9932 100.181 17.0132 100.181 17.0531C100.181 17.1662 100.106 17.2704 100.008 17.3813C99.8378 17.5732 99.5847 17.754 99.2717 17.9258C98.1894 18.5225 96.4367 18.9704 94.4543 19.068C93.0312 19.1179 91.7248 18.8995 90.6103 18.4848C92.6261 17.2427 95.158 16.4709 97.7887 16.4709Z" fill="#201F59"/>
</svg>
